<?xml version="1.0" standalone="no"?><!DOCTYPE svg PUBLIC "-//W3C//DTD SVG 1.1//EN" "http://www.w3.org/Graphics/SVG/1.1/DTD/svg11.dtd"><svg t="1696513066601" class="icon" viewBox="0 0 1024 1024" version="1.1" xmlns="http://www.w3.org/2000/svg" p-id="8038" xmlns:xlink="http://www.w3.org/1999/xlink" width="200" height="200"><path d="M384 42.7h256c23.6 0 42.7 19.1 42.7 42.7S663.6 128 640 128H384c-23.6 0-42.7-19.1-42.7-42.7s19.1-42.6 42.7-42.6z m384 298.6H256v469.3c0 47.1 38.2 85.3 85.3 85.3h341.3c47.1 0 85.3-38.2 85.3-85.3V341.3z m85.3 0v469.3c0 94.3-76.4 170.7-170.7 170.7H341.3c-94.3 0-170.7-76.4-170.7-170.7V341.3H85.3c-23.6 0-42.7-19.1-42.7-42.7S61.8 256 85.3 256h853.3c23.6 0 42.7 19.1 42.7 42.7s-19.1 42.7-42.7 42.7h-85.3z" fill="#ffffff" p-id="8039"></path><path d="M611.6 768c-23.6 0-42.7-19.1-42.7-42.7V512c0-23.6 19.1-42.7 42.7-42.7s42.7 19.1 42.7 42.7v213.3c-0.1 23.6-19.1 42.7-42.7 42.7z m-199.2 0c-23.6 0-42.7-19.1-42.7-42.7V512c0-23.6 19.1-42.7 42.7-42.7s42.7 19.1 42.7 42.7v213.3c0 23.6-19.1 42.7-42.7 42.7z" fill="#ffffff" p-id="8040"></path></svg>