<?xml version="1.0" standalone="no"?><!DOCTYPE svg PUBLIC "-//W3C//DTD SVG 1.1//EN" "http://www.w3.org/Graphics/SVG/1.1/DTD/svg11.dtd"><svg t="1694704274848" class="icon" viewBox="0 0 1000 1000" version="1.1" xmlns="http://www.w3.org/2000/svg" p-id="1530" xmlns:xlink="http://www.w3.org/1999/xlink" width="200" height="200"><path d="M980.779 968.702l0.212-21.22c0-503.961-408.557-912.5-912.539-912.5l-21.221 0.212v148.334c433.662 0 785.207 351.537 785.207 785.174h148.34zM641.018 968.702l0.423-21.22c0-316.444-256.531-572.965-572.989-572.965l-21.221 0.423v148.123c246.132 0 445.659 199.517 445.659 445.641h148.129zM47.231 841.374c0 70.324 57.006 127.328 127.33 127.328 70.327 0 127.33-57.004 127.33-127.328 0-70.315-57.003-127.322-127.33-127.322-70.324-0.001-127.33 57.007-127.33 127.322z" p-id="1531" fill="#ffffff"></path></svg>