<?xml version="1.0" standalone="no"?><!DOCTYPE svg PUBLIC "-//W3C//DTD SVG 1.1//EN" "http://www.w3.org/Graphics/SVG/1.1/DTD/svg11.dtd"><svg t="1695060747158" class="icon" viewBox="0 0 1024 1024" version="1.1" xmlns="http://www.w3.org/2000/svg" p-id="3045" xmlns:xlink="http://www.w3.org/1999/xlink" width="200" height="200"><path d="M171.309757 549.028173C146.751772 395.45579 231.111425 240.268869 381.752145 181.550641c111.636862-43.528816 232.004979-22.709763 317.235633 39.471225l-72.526783 117.478943 325.244596-1.253392L835.458797 0l-59.546741 96.426206c-125.572881-81.321771-296.756483-107.919173-446.653666-49.477117C121.577713 127.909713 2.038109 337.289905 25.640117 549.028173L171.309757 549.028173z" fill="#ffffff" p-id="3046"></path><path d="M852.687625 464.965935c24.536741 153.572383-59.780424 308.780549-210.421144 367.477532-102.693166 40.023567-215.859591 24.940376-302.874735-29.019211 16.570267-26.894818 65.53753-106.198415 65.53753-106.198415L55.169182 676.704203l148.006473 347.295797 62.053525-100.483797c125.551637 81.321771 279.591386 101.992117 429.488569 43.55006 207.638189-80.981868 327.220281-290.340816 303.618273-502.05784L852.687625 465.008423z" fill="#ffffff" p-id="3047"></path></svg>